/* XPM */
static char *nvu[] = {
/* columns rows colors chars-per-pixel */
"32 32 243 2",
"   c #8583BF",
".  c #8281C3",
"X  c #8381C2",
"o  c #8381C3",
"O  c #8382C1",
"+  c #8383C0",
"@  c #8383C1",
"#  c #8282C3",
"$  c #8382C2",
"%  c #8383C2",
"&  c #8383C3",
"*  c #8381C4",
"=  c #8381C5",
"-  c #8382C4",
";  c #8382C5",
":  c #8481C2",
">  c #8481C3",
",  c #8582C1",
"<  c #8482C3",
"1  c #8483C2",
"2  c #8483C3",
"3  c #8582C2",
"4  c #8481C4",
"5  c #8481C6",
"6  c #8482C4",
"7  c #8482C5",
"8  c #8582C5",
"9  c #8783C7",
"0  c #8684C2",
"q  c #8685C3",
"w  c #8B87C6",
"e  c #8A88C6",
"r  c #8B8AC5",
"t  c #8C8AC5",
"y  c #8D8AC5",
"u  c #8C8AC6",
"i  c #8C8BC6",
"p  c #8E8BC5",
"a  c #8D8AC8",
"s  c #908EC4",
"d  c #9693CD",
"f  c #9594C9",
"g  c #9594CB",
"h  c #9694CB",
"j  c #9694CD",
"k  c #9794CD",
"l  c #9896C6",
"z  c #9E9CD1",
"x  c #A19FCF",
"c  c #A5A1D3",
"v  c #A5A2D1",
"b  c #A9A7D4",
"n  c #ABAAD7",
"m  c #ADABD4",
"M  c #ACACD6",
"N  c #B2B1C3",
"B  c #B1B0C9",
"V  c #B4B4CC",
"C  c #B8B7D8",
"Z  c #BAB8D1",
"A  c #BAB9DB",
"S  c #BBB8DB",
"D  c #BABADA",
"F  c #BFBDD8",
"G  c #BCBCDC",
"H  c #BFBDDF",
"J  c #BEBEDE",
"K  c #BEBEDF",
"L  c #BFBEE0",
"P  c #C6C3C4",
"I  c #C7C6C6",
"U  c #C8C8CA",
"Y  c #C8C8CB",
"T  c #CACACA",
"R  c #CBCBCB",
"E  c #CBCBCC",
"W  c #CCCBCC",
"Q  c #CCCBCD",
"!  c #CCCCCB",
"~  c gray80",
"^  c #C0C1DA",
"/  c #C2C0DE",
"(  c #CDCDD1",
")  c #D1D1D0",
"_  c gray82",
"`  c #D1D2D0",
"'  c #D2D2D2",
"]  c #D2D2D3",
"[  c #D3D1D4",
"{  c #D4D2D3",
"}  c #D5D2D3",
"|  c #D6D2D3",
" . c #D7D3D4",
".. c #D6D4D5",
"X. c #D4D3D8",
"o. c #D9D7D8",
"O. c #DAD7D8",
"+. c #D8D9D6",
"@. c #D9D9D7",
"#. c #D9D9D8",
"$. c gray85",
"%. c #D9D8DA",
"&. c #D9D8DB",
"*. c #D9D9DA",
"=. c #D9D9DB",
"-. c #DBDADF",
";. c #DCD9DA",
":. c #DEDADB",
">. c #DFDDDE",
",. c #C5C4E2",
"<. c #CFCFE4",
"1. c #D2CFE2",
"2. c #D0CFE6",
"3. c #D2CFE4",
"4. c #D2CFE7",
"5. c #D1D1E2",
"6. c #D1D2E1",
"7. c #D4D3E6",
"8. c #D2D1E8",
"9. c #D3D1E9",
"0. c #D7D7ED",
"q. c #D8D7EC",
"w. c #DDDDE1",
"e. c #DBDAE8",
"r. c #DBD9ED",
"t. c #DBDBED",
"y. c #E1DDDE",
"u. c #E1DFE0",
"i. c #E0DFE5",
"p. c #E1E0DE",
"a. c #E2E1DC",
"s. c gray88",
"d. c #E0E0E1",
"f. c #E0E1E0",
"g. c #E1E0E0",
"h. c #E1E1E0",
"j. c #E1E1E1",
"k. c #E1E0E2",
"l. c #E2E0E1",
"z. c #E3E0E1",
"x. c #E2E1E2",
"c. c #E2E1E6",
"v. c #E4E0E1",
"b. c #E4E2E3",
"n. c #E5E3E4",
"m. c #E6E4E5",
"M. c #E7E5E6",
"N. c #E7E7E7",
"B. c #E2E1EA",
"V. c #E6E7E9",
"C. c #E7E7EA",
"Z. c #E7E8E4",
"A. c #E8E7E5",
"S. c #EBE7E8",
"D. c #E8E9E7",
"F. c gray91",
"G. c #E9E8E8",
"H. c #EAE9EA",
"J. c #EBEAEA",
"K. c #E9E8ED",
"L. c #EDEBEC",
"P. c #EFECED",
"I. c #EEEEED",
"U. c #EFEEEF",
"Y. c #EFEFEF",
"T. c #E4E3F3",
"R. c #E4E4F1",
"E. c #EAE8F2",
"W. c #EBECF2",
"Q. c #EFEEF3",
"!. c #ECECF4",
"~. c #EEF0EB",
"^. c #F1F0F0",
"/. c #F2F0F1",
"(. c gray95",
"). c #F3F2F3",
"_. c #F3F3F6",
"`. c #F3F4F6",
"'. c #F4F2F3",
"]. c #F4F3F4",
"[. c #F5F3F4",
"{. c #F4F4F4",
"}. c #F4F5F5",
"|. c #F5F5F4",
" X c gray96",
".X c #F5F6F6",
"XX c #F6F5F5",
"oX c #F6F5F6",
"OX c #F7F5F6",
"+X c #F6F6F6",
"@X c #F1F2F9",
"#X c #F3F3F8",
"$X c #F3F4F8",
"%X c #F4F3F8",
"&X c #F5F5F8",
"*X c #F7F6FA",
"=X c #F7F7FB",
"-X c #F8F6F7",
";X c #F8F7FA",
":X c #F8F7FB",
">X c #F9F8F9",
",X c #F9F9F9",
"<X c #F8F8FA",
"1X c #FAF8F9",
"2X c #FAF9FA",
"3X c #FAFBF9",
"4X c gray98",
"5X c #FBFAFA",
"6X c #FBFAFB",
"7X c #FBFBFB",
"8X c #F8F8FC",
"9X c #F9F9FC",
"0X c #FCFAFB",
"qX c #FCFBFC",
"wX c #FCFDFA",
"eX c #FCFEF9",
"rX c #FDFEFA",
"tX c #FEFDFB",
"yX c #FEFEFB",
"uX c gray99",
"iX c #FDFCFD",
"pX c #FDFDFC",
"aX c #FDFDFD",
"sX c #FDFEFC",
"dX c #FDFEFE",
"fX c #FDFFFE",
"gX c #FEFDFC",
"hX c #FEFDFD",
"jX c #FEFDFE",
"kX c #FEFEFC",
"lX c #FEFEFD",
"zX c #FEFFFC",
"xX c #FEFFFD",
"cX c #FFFEFC",
"vX c #FFFFFD",
"bX c #FEFEFE",
"nX c #FEFEFF",
"mX c #FEFFFE",
"MX c #FEFFFF",
"NX c #FFFEFE",
"BX c #FFFEFF",
"VX c #FFFFFE",
"CX c gray100",
/* pixels */
"CXCXCXCXCXCXCXCXCXCXCXCXCXCXCXCXCXCXCXCXCXCXCXCXCXCXCXCXCXCXCXCX",
"CXCXCXCXCXCXCXCXCXCXCXCXCXCXCXCXCXCXCXCXCXCXCXCXCXCXCXCXCXCXCXCX",
"CXCXCXCXCXCXCXCXCXCXCXCXCXCXCXCXCXCXCXwXwXCXCXCXCXCXCXCXCXCXCXCX",
"CXCXCXCXCXCXCXCXCXCXCXCXCXCXCXCXCXCXCXwXwXCXCXCXCXCXCXCXCXCXCXCX",
"CXCXCXCXCXCXCXCXCXCXCXCXCXCXCXCXCXCXCXwXE.7XCXCXCXCXCXCXCXCXCXCX",
"CXCXCXCXCXCXCXCXCXCXCXwXwXwXCXCXwXCX7XwX4.;XCXCXCXCXCXCXCXCXCXCX",
"CXCXCXCXCXCXCXCXCXCXCXwXCXwXCXCXCXwXwXCX4.:XCXCXCXCXCXCXCXCXCXCX",
"CXCXCXCXCXCXCXCXCXCXwX7XwXCXCXCXCXCXCXwX1.;XCXCXCXCXCXCXCXCXCXCX",
"CXCXCXCXCXCXCXCXCXCXwX8.m M n 8.wXCXCX`.b ;XCXCXCXCXCXCXCXCXCXCX",
"CXCXCXCXCXCXCXCXCXCXCXH > > > u W.CXwX_.g ;X2XCXCXCXCXCXCXwXCXCX",
"CXCXCXCXCXCXCXCXCXCXCXH > 2 > > c 2XCX_.g *XCXCXCXCXCXCXCXCXCXCX",
"CXCXCXCXCXCXCXCXCXCXCXH > > 2 % 2 ,.eX_.d 2XCX7XCXCXCXCXCXCXCXCX",
"CXCXCXCXCXCXCXCXCXCXCXL > > X = X i R.*Xg :XCXCXCXCXCXCXCXCXCXCX",
"CXCXCXCXCXOXl.U.CXCXCXH > > X X X X c W.g *XCXCXH.n.2XCXCX7XCXCX",
"CXCX7X'.O.O.L.2XCXCXCXH > > 2 z 2 2 > A d 2XCX7X2Xn.} y.oXCX7XCX",
"7XP.| O./.7XCXCX7XCX7XH > X = 0.l 2 2 2 i *X7XCXCXCX2XP.| O./.7X",
"2XP H.CXCX7XCXCXCXCXCXH 2 X 2 e.T.w > 2 r =XCXCXCX7XCXCX7Xz.I 2X",
"CX'.:.{ H.2XCXCXCX7XeXH 2 X 5 t.wX/ > X r *XCX7X7XCX7Xn.| y.oXCX",
"2X2X7X_.:.{ l.oX2X2XwXH X X 2 q.2X_.x > r _.2X2XoXl.{ l.oX2X2XeX",
"|.|.}.}..X/.l.H.oX_..XA % = 2 7._.oXt.i r Q.{._.n.l._.oXoXoXoXoX",
"U.U.I.Q.U.I.Q.I.I.Q.I.A = =   <.~.U.U.A p H.U.I.Q.I.Q.I.I.Q.I.~.",
"Z.H.H.Z.V.N.Z.H.Z.V.Z.p.<.X.5.B.Z.Z.V.V.^ c.H.Z.Z.H.Z.V.Z.V.H.H.",
"p.p.f.f.f.f.f.p.f.p.w.c.l.f.f.y.l.f.f.l.F -.l.f.l.f.f.f.p.p.f.l.",
"$.*.*.*.$.$.$.*.*.*.+.*.+.*.*.*.*.*.*.+.Z X.*.*.*.*.$.$.$.*.*.*.",
"] ] ] ` ` ] ] ] ] ] ] ] ] ] ] ] ] ] ] ` V Q ] ] ] ] ] ` ] ] ] ] ",
"R R R R R R ! R ! ! ! R ! ! ! ! R ! ! R B U R R R R R R T R ! ! ",
"T T T T T T T T T T T T T T T T T T T T N U T T T T T T T T T T ",
"T T T T T T T T T T T T T T T T T T T T T R T T T T T T T T T T ",
"T T T T T T T T T T T T T T T T T T T T T T T T T T T T T T T T ",
"T T T T T T T T T T T T T T T T T T T T T T T T T T T T T T T T ",
"T T T T T T T T T T T T T T T T T T T T T T T T T T T T T T T T ",
"T T T T T T T T T T T T T T T T T T T T T T T T T T T T T T T T "
};
