/* XPM */
static char * mozicon50_xpm[] = {
"50 50 256 2",
"  	c None",
". 	c #391073",
"+ 	c #39107B",
"@ 	c #391084",
"# 	c #39187B",
"$ 	c #391884",
"% 	c #421084",
"& 	c #42108C",
"* 	c #421094",
"= 	c #421884",
"- 	c #42188C",
"; 	c #42189C",
"> 	c #4A109C",
", 	c #4A10A5",
"' 	c #4A10AD",
") 	c #4A1894",
"! 	c #4A189C",
"~ 	c #4A18A5",
"{ 	c #4A18AD",
"] 	c #4A2194",
"^ 	c #4A219C",
"/ 	c #5210A5",
"( 	c #5210AD",
"_ 	c #5210B5",
": 	c #5218AD",
"< 	c #5218B5",
"[ 	c #52219C",
"} 	c #5221A5",
"| 	c #5221AD",
"1 	c #5221B5",
"2 	c #5A08B5",
"3 	c #5A08BD",
"4 	c #5A08C6",
"5 	c #5A10AD",
"6 	c #5A10B5",
"7 	c #5A10BD",
"8 	c #5A18B5",
"9 	c #5A18BD",
"0 	c #5A21AD",
"a 	c #5A21B5",
"b 	c #5A21BD",
"c 	c #5A29B5",
"d 	c #6308BD",
"e 	c #6308C6",
"f 	c #6308CE",
"g 	c #6310C6",
"h 	c #6321BD",
"i 	c #6321C6",
"j 	c #6329B5",
"k 	c #6329BD",
"l 	c #6329C6",
"m 	c #6331B5",
"n 	c #6331BD",
"o 	c #6B00CE",
"p 	c #6B00D6",
"q 	c #6B08CE",
"r 	c #6B10C6",
"s 	c #6B10CE",
"t 	c #6B18C6",
"u 	c #6B18CE",
"v 	c #6B21C6",
"w 	c #6B29C6",
"x 	c #6B29CE",
"y 	c #6B29D6",
"z 	c #6B39BD",
"A 	c #6B42BD",
"B 	c #7300D6",
"C 	c #7300DE",
"D 	c #7308DE",
"E 	c #7318CE",
"F 	c #7321CE",
"G 	c #7329C6",
"H 	c #7329CE",
"I 	c #7329D6",
"J 	c #7331C6",
"K 	c #7331D6",
"L 	c #7331DE",
"M 	c #7342BD",
"N 	c #734ABD",
"O 	c #7B00DE",
"P 	c #7B10D6",
"Q 	c #7B18D6",
"R 	c #7B29D6",
"S 	c #7B31DE",
"T 	c #7B39C6",
"U 	c #7B39CE",
"V 	c #7B4AC6",
"W 	c #7B52C6",
"X 	c #8421D6",
"Y 	c #8421DE",
"Z 	c #8429D6",
"` 	c #8429DE",
" .	c #8431D6",
"..	c #8431DE",
"+.	c #8439CE",
"@.	c #8439D6",
"#.	c #8442CE",
"$.	c #844ACE",
"%.	c #844AD6",
"&.	c #845AC6",
"*.	c #8463C6",
"=.	c #8C42D6",
"-.	c #8C42DE",
";.	c #8C4AD6",
">.	c #8C5ACE",
",.	c #8C63CE",
"'.	c #8C6BCE",
").	c #9439E7",
"!.	c #9442DE",
"~.	c #9442E7",
"{.	c #944ADE",
"].	c #9452D6",
"^.	c #9452DE",
"/.	c #945AD6",
"(.	c #945ADE",
"_.	c #946BCE",
":.	c #9473CE",
"<.	c #9C42E7",
"[.	c #9C52DE",
"}.	c #9C52E7",
"|.	c #9C5ADE",
"1.	c #9C63DE",
"2.	c #9C7BCE",
"3.	c #9C7BD6",
"4.	c #9C84D6",
"5.	c #A55AE7",
"6.	c #A563DE",
"7.	c #A563E7",
"8.	c #A56BDE",
"9.	c #A56BE7",
"0.	c #A573DE",
"a.	c #A57BD6",
"b.	c #A584D6",
"c.	c #A58CD6",
"d.	c #AD63E7",
"e.	c #AD73E7",
"f.	c #AD84DE",
"g.	c #AD8CD6",
"h.	c #AD8CDE",
"i.	c #AD94DE",
"j.	c #B573E7",
"k.	c #B573EF",
"l.	c #B57BE7",
"m.	c #B57BEF",
"n.	c #B584E7",
"o.	c #B584EF",
"p.	c #B59CDE",
"q.	c #B5A5DE",
"r.	c #BD84EF",
"s.	c #BD94E7",
"t.	c #BDA5DE",
"u.	c #BDADE7",
"v.	c #C694EF",
"w.	c #C6A5E7",
"x.	c #C6ADE7",
"y.	c #C6B5E7",
"z.	c #CEA5EF",
"A.	c #CEA5F7",
"B.	c #CEB5E7",
"C.	c #CEB5EF",
"D.	c #CEBDE7",
"E.	c #CEBDEF",
"F.	c #D6B5EF",
"G.	c #D6C6EF",
"H.	c #D6CEEF",
"I.	c #DEBDF7",
"J.	c #DEC6F7",
"K.	c #DECEEF",
"L.	c #DED6EF",
"M.	c #DED6F7",
"N.	c #E7D6F7",
"O.	c #E7DEF7",
"P.	c #EFE7F7",
"Q.	c #EFEFF7",
"R.	c #F7EFFF",
"S.	c #F7F7FF",
"T.	c #FFF7FF",
"U.	c #FFFFFF",
"V.	c #FFFFFF",
"W.	c #FFFFFF",
"X.	c #FFFFFF",
"Y.	c #FFFFFF",
"Z.	c #FFFFFF",
"`.	c #FFFFFF",
" +	c #FFFFFF",
".+	c #FFFFFF",
"++	c #FFFFFF",
"@+	c #FFFFFF",
"#+	c #FFFFFF",
"$+	c #FFFFFF",
"%+	c #FFFFFF",
"&+	c #FFFFFF",
"*+	c #FFFFFF",
"=+	c #FFFFFF",
"-+	c #FFFFFF",
";+	c #FFFFFF",
">+	c #FFFFFF",
",+	c #FFFFFF",
"'+	c #FFFFFF",
")+	c #FFFFFF",
"!+	c #FFFFFF",
"~+	c #FFFFFF",
"{+	c #FFFFFF",
"]+	c #FFFFFF",
"^+	c #FFFFFF",
"/+	c #FFFFFF",
"(+	c #FFFFFF",
"_+	c #FFFFFF",
":+	c #FFFFFF",
"<+	c #FFFFFF",
"[+	c #FFFFFF",
"}+	c #FFFFFF",
"|+	c #FFFFFF",
"1+	c #FFFFFF",
"2+	c #FFFFFF",
"3+	c #FFFFFF",
"4+	c #FFFFFF",
"5+	c #FFFFFF",
"6+	c #FFFFFF",
"7+	c #FFFFFF",
"8+	c #FFFFFF",
"9+	c #FFFFFF",
"0+	c #FFFFFF",
"a+	c #FFFFFF",
"b+	c #FFFFFF",
"c+	c #FFFFFF",
"d+	c #FFFFFF",
"e+	c #FFFFFF",
"f+	c #FFFFFF",
"g+	c #FFFFFF",
"h+	c #FFFFFF",
"i+	c #FFFFFF",
"j+	c #FFFFFF",
"k+	c #FFFFFF",
"l+	c #FFFFFF",
"m+	c #FFFFFF",
"n+	c #FFFFFF",
"o+	c #FFFFFF",
"p+	c #FFFFFF",
"q+	c #FFFFFF",
"r+	c #FFFFFF",
"s+	c #FFFFFF",
"t+	c #FFFFFF",
"u+	c #FFFFFF",
"v+	c #FFFFFF",
"w+	c #FFFFFF",
"x+	c #FFFFFF",
"y+	c #FFFFFF",
"z+	c #FFFFFF",
"A+	c #FFFFFF",
"B+	c #FFFFFF",
"C+	c #FFFFFF",
"D+	c #FFFFFF",
"E+	c #FFFFFF",
"F+	c #FFFFFF",
"G+	c #FFFFFF",
"                                                                                                    ",
"                                    K K K K K x x x x w w w w l                                     ",
"                              L K K x l b a : { { { { : < a b k k k k                               ",
"                          L L K l < { { { N &.b.b.b.b.&.N { { { : a k k j                           ",
"                      S L K i : { m :.y.R.S.Q.Q.Q.Q.Q.Q.Q.Q.G.c.A { : a j j c                       ",
"                    S L l : { N x.O.O.O.P.Q.O.O.O.O.O.O.O.O.O.O.O.D.*.{ : 0 c c                     ",
"                  S K a { m t.L.L.L.L.L.O.P.L.L.L.L.L.L.L.L.L.L.L.L.L.y.M { : 0 0                   ",
"                S I < { *.H.H.H.H.H.H.H.L.P.H.H.H.H.H.H.H.H.H.H.H.H.H.H.H.2.{ : 0 0                 ",
"              S y : | 2.D.D.D.D.D.D.D.D.H.O.D.D.D.D.D.D.D.D.D.D.D.D.D.D.D.D.p.| : } }               ",
"            S y : | i.y.y.y.y.y.y.y.y.y.G.L.y.y.y.y.y.y.y.y.y.y.y.y.y.y.y.y.y.i.| : } }             ",
"          L K < | c.t.t.t.t.t.t.t.t.t.t.D.K.t.t.t.t.t.t.t.t.t.t.t.t.t.t.t.t.t.t.c.| : } }           ",
"        L L a { '.p.p.p.p.p.p.p.p.p.p.p.y.H.p.p.p.p.p.p.p.p.p.p.p.p.p.p.p.p.p.p.p.4.{ : [ [         ",
"        L l { N c.c.c.c.c.c.c.c.c.c.c.c.t.G.c.c.c.c.c.c.c.c.c.c.c.c.c.c.c.c.c.c.c.c.&.{ } [         ",
"      L K : 0 2.2.2.2.2.2.2.2.2.2.2.2.2.p.D.2.2.2.2.2.2.2.2.2.2.2.2.2.2.2.2.2.2.2.2.2.m { ^ ^       ",
"      L i { W :.:.:.:.:.:.:.:.:.:.:.:.:.i.y.:.:.:.:.:.:.:.:.:.:.:.:.:.:.:.:.:.:.:.:.:.&.{ ~ ]       ",
"    K K : | *.*.*.*.*.*.*.*.*.*.*.*.*.*.c.y.*.*.*.*.*.*.*.*.*.*.*.*.*.*.*.*.*.*.*.*.*.*.m { ] ]     ",
"    K l { A &.&.&.u.U.U.U.U.q.&.&.&.&.L.U.u.&.&.&.&.&.&.&.&.&.&.&.&.&.&.&.&.&.&.&.&.W A c { ! ]     ",
"    K < : N N N N t.U.U.U.U.S.W N N N K.U.t.N N N N N N N N N N N N N N N N N A m | { { { { ~ ]     ",
"  K x { 0 z z z z p.U.U.U.U.U.D.z z z H.U.p.z z z z z z z z z z z z z z m c : { { { { { { { { ] -   ",
"  K l { 0 c c c c i.U.U.U.U.U.U.'.c c G.U.x.H.i.c c c c c z H.i.2.H.W | { { { '.G.{ { { { { { ! -   ",
"  K b { : | | | | c.U.U.U.U.U.U.Q.c | G.U.c.O.Q.| | | | | :.U.:.c.U.W { { { { c.U.{ { { { { { ! -   ",
"  K a { { { { { { c.U.U.U.U.U.U.U.t.{ G.U.c.p.U.W { { { { y.U.c c.U.W { { { { c.U.{ { { { { { ~ -   ",
"  K : { { { { { { c.U.U.U.U.U.U.U.U.W G.U.c.m U.p.: : : a U.t.{ c.U.W { { { { c.U.{ { { { { { { =   ",
"  x { { { { { { { c.U.U.U.U.O.U.U.U.O.L.U.c._ L.O._ _ _ _.U.&.: c.U.W { { { { c.U.{ { { { { { { =   ",
"  x { { { { { *.*.c.U.U.U.U.W U.U.U.U.U.U.f.6 a.U.T 6 6 B.R._ _ c.U.W { { { { c.U.{ 2.m { { { { =   ",
"  x { { { '.L.c.c c.U.U.U.U.: p.U.U.U.U.U.f.7 G U.s.7 J U.w.6 6 g.U.W : { { { c.U.{ W t.y.W { { =   ",
"  x { { O.p.c { { c.U.U.U.U.: a O.U.U.U.U.f.7 7 C.O.d 0.U.T 7 7 f.U.V _ : { { c.U.{ { { m L.t.{ =   ",
"  w : { W G.t.A { c.U.U.U.U._ 6 $.U.U.U.U.f.e e 1.U.+.K.O.g 7 7 f.U.$._ _ : { y.U.{ { '.G.p.m ~ #   ",
"  w < { { { m t.2.c.U.U.U.U.6 7 7 w.U.U.U.n.e e E U.C.U.n.e e g $.U.w.6 _ _ a Q.O.{ p.c.c { { ~ #   ",
"  w a { { { { { { c.U.U.U.U.7 7 7 t R.U.U.n.q q q C.U.U.R e e e e O.U.w.>.3.L.U.c.{ { { { { { ! #   ",
"  l b { { { { { { c.U.U.U.U.7 d e e /.U.U.n.q q q [.U.N.q q e e e +.O.U.U.U.U.p.: { { { { { { - #   ",
"  l k { { { { { { m W V $.$.7 e e e q =.e.n.q q q q q q q q q q e e e U $.$.h _ : { { { { { { $ #   ",
"    k : { { { { { : _ 6 7 7 e e e q q q !.n.q q B B q q q q q q q e e e 7 7 6 _ : : { { { { ~ #     ",
"    k a { { { { : _ 6 7 7 g e e q q q q !.n.B B B B B B B q q q q q e e g 7 7 6 _ : { { { { - #     ",
"    k k : { { { : _ 6 7 7 e e e q q q q !.n.B B B B B B B B q q q q e e e 7 7 6 _ : { { { ~ # #     ",
"      j a { { { : _ 6 7 d e e q q q q B !.n.B B B B B B B B B q q q q e e g 7 7 6 ( : { { - #       ",
"      j c : { : : 6 7 7 g e e q q q B B !.r.B B B B B B B B B B q q q e e e 7 7 6 _ : { ~ # #       ",
"        c | { : _ 6 7 7 e e e q q q B B !.r.B B C C C B B B B B q q q q e e 7 7 9 a : { - #         ",
"        c c : : < 8 7 7 e e q q q q B B !.r.B C O O C C B B B B q q q q e e g v w a : ! # #         ",
"          0 0 : _ h w g e e q q q q B B !.r.C C O O O C B B B B B q q q e v U T w _ ~ # #           ",
"            0 0 < 6 w #.G e q q q q B B !.r.C C O O O C B B B B B q q E @.;.$.J 6 ( $ #             ",
"              0 | 6 7 w ].;. .s q q B B !.r.B C C C C B B B B B q Z !.|././.J 7 6 = #               ",
"                } } 6 7 t /.1.6.{. .Q B !.r.B B C C B B B D Y !.6.8.8.8.1.v 7 6 = #                 ",
"                  } } 6 g e @.8.e.e.e.e.n.z.!.).).).<.5.d.j.j.j.e.l.e.=.r e ( # #                   ",
"                    [ [ : g e s =.e.n.n.z.I.r.r.r.r.r.r.r.r.r.n.n.;.E e d > # #                     ",
"                      [ ^ [ 5 e q q Z [.n.I.v.v.v.v.v.v.v.l.[. .q q e > # # #                       ",
"                          ] ] ] : d q q q q Q Z ` ` Z Q B q q q d > # # #                           ",
"                              ] ] ] ) / 6 d q q q q q q d 5 > = # # #                               ",
"                                    - - - = = = = = $ # # # # #                                     ",
"                                                                                                    "};
